<?xml version="1.0" encoding="UTF-8"?>
<svg id="Layer_1" data-name="Layer 1" xmlns="http://www.w3.org/2000/svg" viewBox="0 0 496 496">
  <defs>
    <style>
      .cls-1 {
        fill: #fff;
      }
    </style>
  </defs>
  <path class="cls-1" d="M248,0C111.03,0,0,111.03,0,248s111.03,248,248,248,248-111.03,248-248S384.97,0,248,0ZM362.95,168.66c-3.73,39.21-19.88,134.38-28.1,178.3-3.48,18.58-10.32,24.82-16.95,25.42-14.4,1.33-25.34-9.52-39.29-18.66-21.83-14.31-34.16-23.21-55.35-37.18-24.49-16.14-8.61-25,5.34-39.5,3.65-3.79,67.11-61.51,68.34-66.75.15-.65.3-3.1-1.15-4.38s-3.59-.85-5.14-.5c-2.19.5-37.06,23.54-104.61,69.14-9.9,6.8-18.86,10.11-26.89,9.93-8.85-.19-25.89-5.01-38.55-9.12-15.53-5.05-27.88-7.72-26.8-16.29.56-4.47,6.71-9.03,18.45-13.7,72.3-31.5,120.51-52.27,144.63-62.3,68.87-28.65,83.18-33.62,92.51-33.79,2.05-.03,6.64.47,9.61,2.88,1.98,1.72,3.24,4.11,3.53,6.72.5,3.23.64,6.51.42,9.77Z"/>
</svg>